<svg width="55" height="54" viewBox="0 0 55 54" fill="none" xmlns="http://www.w3.org/2000/svg">
<rect x="5.5" y="4.5" width="49" height="49" fill="white" stroke="black"/>
<rect width="50" height="50" fill="#FF7B00"/>
<path d="M23.68 21.9V25.02H18.04V27.5H22.2V30.48H18.04V36H14.12V21.9H23.68ZM32.4709 36L29.6709 30.8H29.2509V36H25.3309V21.9H31.5109C32.6443 21.9 33.6043 22.1 34.3909 22.5C35.1776 22.8867 35.7709 23.4267 36.1709 24.12C36.5709 24.8 36.7709 25.5667 36.7709 26.42C36.7709 27.38 36.5043 28.2267 35.9709 28.96C35.4509 29.68 34.6843 30.1933 33.6709 30.5L36.8509 36H32.4709ZM29.2509 28.12H31.1909C31.7243 28.12 32.1243 27.9933 32.3909 27.74C32.6576 27.4867 32.7909 27.12 32.7909 26.64C32.7909 26.1867 32.6509 25.8333 32.3709 25.58C32.1043 25.3133 31.7109 25.18 31.1909 25.18H29.2509V28.12Z" fill="white"/>
</svg>
